HIERARCHY
ROOT Hips
{
	OFFSET -0.001795 -0.223333 0.028219
	CHANNELS 6 Xposition Yposition Zposition Zrotation Yrotation Xrotation 
	JOINT LeftUpLeg
	{
		OFFSET 0.069520 -0.091406 -0.006815
		CHANNELS 3 Zrotation Yrotation Xrotation
		JOINT LeftLeg
		{
			OFFSET 0.034277 -0.375199 -0.004496
			CHANNELS 3 Zrotation Yrotation Xrotation
			JOINT LeftFoot
			{
				OFFSET -0.013596 -0.397961 -0.043693
				CHANNELS 3 Zrotation Yrotation Xrotation
				JOINT LeftToe
				{
					OFFSET 0.026358 -0.055791 0.119288
					CHANNELS 3 Zrotation Yrotation Xrotation
					End Site
					{
						OFFSET 0.000000 0.000000 0.000000
					}
				}
			}
		}
	}
	JOINT RightUpLeg
	{
		OFFSET -0.067670 -0.090522 -0.004320
		CHANNELS 3 Zrotation Yrotation Xrotation
		JOINT RightLeg
		{
			OFFSET -0.038290 -0.382569 -0.008850
			CHANNELS 3 Zrotation Yrotation Xrotation
			JOINT RightFoot
			{
				OFFSET 0.015774 -0.398415 -0.042312
				CHANNELS 3 Zrotation Yrotation Xrotation
				JOINT RightToe
				{
					OFFSET -0.025372 -0.048144 0.123348
					CHANNELS 3 Zrotation Yrotation Xrotation
					End Site
					{
						OFFSET 0.000000 0.000000 0.000000
					}
				}
			}
		}
	}
	JOINT Spine
	{
		OFFSET -0.002533 0.108963 -0.026696
		CHANNELS 3 Zrotation Yrotation Xrotation
		JOINT Spine1
		{
			OFFSET 0.005487 0.135180 0.001092
			CHANNELS 3 Zrotation Yrotation Xrotation
			JOINT Spine2
			{
				OFFSET 0.001457 0.052922 0.025425
				CHANNELS 3 Zrotation Yrotation Xrotation
				JOINT Neck
				{
					OFFSET -0.002778 0.213870 -0.042857
					CHANNELS 3 Zrotation Yrotation Xrotation
					JOINT Head
					{
						OFFSET 0.005152 0.064970 0.051349
						CHANNELS 3 Zrotation Yrotation Xrotation
						End Site
						{
							OFFSET 0.000000 0.000000 0.000000
						}
					}
				}
				JOINT LeftShoulder
				{
					OFFSET 0.078845 0.121749 -0.034090
					CHANNELS 3 Zrotation Yrotation Xrotation
					JOINT LeftArm
					{
						OFFSET 0.090977 0.030469 -0.008868
						CHANNELS 3 Zrotation Yrotation Xrotation
						JOINT LeftForeArm
						{
							OFFSET 0.259612 -0.012772 -0.027456
							CHANNELS 3 Zrotation Yrotation Xrotation
							JOINT LeftHand
							{
								OFFSET 0.249234 0.008986 -0.001171
								CHANNELS 3 Zrotation Yrotation Xrotation
								End Site
								{
									OFFSET 0.000000 0.000000 0.000000
								}
							}
						}
					}
				}
				JOINT RightShoulder
				{
					OFFSET -0.081759 0.118833 -0.038615
					CHANNELS 3 Zrotation Yrotation Xrotation
					JOINT RightArm
					{
						OFFSET -0.096012 0.032551 -0.009143
						CHANNELS 3 Zrotation Yrotation Xrotation
						JOINT RightForeArm
						{
							OFFSET -0.253742 -0.013329 -0.021401
							CHANNELS 3 Zrotation Yrotation Xrotation
							JOINT RightHand
							{
								OFFSET -0.255298 0.007772 -0.005559
								CHANNELS 3 Zrotation Yrotation Xrotation
								End Site
								{
									OFFSET 0.000000 0.000000 0.000000
								}
							}
						}
					}
				}
			}
		}
	}
}
MOTION
Frames: 16
Frame Time: 0.050000
-0.055284 0.931053 -0.024244 1.061724 39.782487 3.845962 5.858324 -1.550190 -15.220061 -4.461876 -1.457811 19.761987 7.212693 13.663509 1.632020 0.000000 0.000000 0.000000 -5.176343 -0.852168 -20.606728 -5.966695 0.569305 19.032584 7.338740 12.157246 12.514909 0.000000 0.000000 0.000000 9.334048 -2.076505 9.933652 -2.188260 1.388886 -5.193816 -2.257071 11.159868 10.151043 12.488514 -2.739253 -17.237770 0.000000 0.000000 0.000000 17.393787 -17.791271 8.966061 -8.964749 -35.273441 -3.225142 114.693450 -43.623754 -83.038623 0.000000 0.000000 0.000000 -18.702047 2.091790 -3.592757 20.420639 9.715275 -0.329806 -76.229570 35.468989 -7.694527 0.000000 0.000000 0.000000 
-0.055230 0.932422 -0.022976 1.250245 39.146145 3.708143 5.724519 -1.459145 -14.582708 -4.646335 -1.351682 19.487120 7.641866 14.411799 1.761777 0.000000 0.000000 0.000000 -5.365082 -0.853205 -20.568255 -6.014249 0.672216 18.468417 7.786648 12.571408 13.446770 0.000000 0.000000 0.000000 9.463443 -2.266211 10.812459 -2.927378 1.713271 -5.853746 -2.766684 10.657662 10.766894 12.579638 -2.540453 -18.335214 0.000000 0.000000 0.000000 17.641282 -17.291814 8.885501 -9.356682 -33.641176 -2.802074 116.872862 -43.855996 -85.783380 0.000000 0.000000 0.000000 -20.700655 0.642469 -4.250280 20.126235 7.256389 -0.639543 -75.413022 39.934259 -10.600842 0.000000 0.000000 0.000000 
-0.054714 0.938842 -0.021657 1.580959 39.325788 4.417213 5.068897 -1.397962 -13.987635 -3.323024 -1.301898 17.469997 6.405181 12.868990 2.707247 0.000000 0.000000 0.000000 -5.536661 -0.868846 -20.246357 -5.600276 0.697091 16.387570 7.647157 11.943887 15.175680 0.000000 0.000000 0.000000 9.548997 -2.193646 10.267603 -3.296182 1.843659 -5.975278 -3.355325 9.843562 10.582026 12.929365 -3.025064 -17.719715 0.000000 0.000000 0.000000 17.899829 -16.854161 8.826817 -9.383138 -30.348454 -2.219498 118.714230 -43.310179 -87.323771 0.000000 0.000000 0.000000 -24.048719 -0.444498 -4.909594 18.359631 4.346102 -0.977561 -71.558435 45.148087 -12.690990 0.000000 0.000000 0.000000 
-0.053887 0.946374 -0.020312 2.137987 39.470900 5.352223 4.936497 -1.392852 -13.883740 -3.343681 -1.101644 16.001001 5.720362 12.491288 4.007275 0.000000 0.000000 0.000000 -5.897052 -0.911469 -19.757392 -5.741958 0.858404 14.234518 7.657870 11.737707 16.326611 0.000000 0.000000 0.000000 9.564481 -2.032628 9.350731 -4.082220 2.066800 -5.417377 -3.640085 9.508763 10.125082 13.610727 -3.650150 -17.298389 0.000000 0.000000 0.000000 18.713358 -15.616451 8.837197 -9.051199 -27.961507 -1.918991 119.019700 -41.678858 -85.901167 0.000000 0.000000 0.000000 -26.943830 -2.209299 -5.463992 16.619709 1.395071 -1.190071 -68.038695 50.737150 -14.634015 0.000000 0.000000 0.000000 
-0.052979 0.951265 -0.019193 2.263376 39.839088 6.234470 4.743148 -1.414692 -13.937749 -3.249278 -0.961370 14.654822 5.253133 12.025416 4.496414 0.000000 0.000000 0.000000 -5.829140 -0.895449 -19.532081 -6.352256 1.077816 12.143964 8.373334 12.716010 16.986731 0.000000 0.000000 0.000000 9.353685 -1.882283 8.626933 -4.315552 2.155867 -5.757754 -4.346796 10.177675 10.405658 13.782631 -3.799164 -16.756917 0.000000 0.000000 0.000000 21.171034 -12.845760 9.316791 -9.511410 -28.435988 -2.087941 120.364769 -39.792554 -86.897531 0.000000 0.000000 0.000000 -28.658276 -4.610532 -6.262176 16.415666 -2.218760 -1.402764 -64.049856 55.802592 -14.836309 0.000000 0.000000 0.000000 
-0.052181 0.953964 -0.018423 2.148562 39.816301 6.787098 4.532127 -1.490273 -14.509470 -2.844493 -1.004396 14.553606 5.087988 11.969548 4.783866 0.000000 0.000000 0.000000 -6.089413 -1.028707 -20.260192 -6.182559 1.051807 11.849965 8.183285 12.182236 17.804847 0.000000 0.000000 0.000000 9.474619 -1.854327 8.249866 -4.734591 2.228444 -4.889205 -4.293394 10.383740 9.656504 13.648793 -3.787232 -16.561340 0.000000 0.000000 0.000000 20.532688 -10.560325 8.933334 -10.182821 -28.325208 -1.914479 121.454930 -39.156669 -86.800687 0.000000 0.000000 0.000000 -28.143342 -6.055925 -6.362200 16.448106 -4.170079 -1.484832 -65.729636 60.367868 -18.347640 0.000000 0.000000 0.000000 
-0.051913 0.955741 -0.017980 2.516390 39.707794 6.845719 3.836868 -1.563662 -15.020099 -2.646648 -1.247696 16.160686 5.054217 11.682041 4.272404 0.000000 0.000000 0.000000 -6.568855 -1.201164 -20.667449 -6.388238 1.084629 12.463284 8.829319 12.850885 18.408195 0.000000 0.000000 0.000000 9.124755 -1.954539 9.122119 -5.048495 2.309754 -4.446431 -4.402070 10.611062 10.081291 13.017928 -3.363858 -16.558722 0.000000 0.000000 0.000000 19.662683 -8.161705 8.435278 -12.810476 -28.561499 -1.557426 125.125342 -38.853845 -90.373217 0.000000 0.000000 0.000000 -26.564180 -6.852771 -6.456275 18.683267 -7.426218 -1.821720 -70.985031 65.159332 -24.728186 0.000000 0.000000 0.000000 
-0.052498 0.956422 -0.017591 3.001402 39.235397 7.207311 2.857215 -1.686527 -15.738870 -1.984017 -1.525466 17.386916 5.353172 12.035119 3.931763 0.000000 0.000000 0.000000 -7.133145 -1.472200 -21.866222 -6.150054 0.987974 14.097999 9.355147 13.472470 18.318607 0.000000 0.000000 0.000000 8.784026 -2.045124 9.936551 -6.049533 2.574968 -3.202011 -3.836133 10.941468 9.031410 11.668896 -3.038933 -15.033810 0.000000 0.000000 0.000000 17.812907 -6.677662 7.645628 -15.730149 -28.369669 -1.044235 130.174197 -40.519164 -97.754443 0.000000 0.000000 0.000000 -25.542256 -6.801284 -6.227272 21.691792 -9.468273 -2.161382 -76.651436 70.119522 -32.916985 0.000000 0.000000 0.000000 
-0.054281 0.953871 -0.017240 3.286139 39.355488 7.363185 2.154445 -1.874209 -16.707017 -1.783884 -1.973329 19.800298 5.615183 12.292292 3.496763 0.000000 0.000000 0.000000 -7.028895 -1.660311 -23.319471 -6.575744 0.960049 16.852942 8.843165 13.060599 16.869103 0.000000 0.000000 0.000000 9.048789 -2.315953 11.009499 -6.165706 2.630288 -3.428149 -4.326329 11.872361 9.080992 11.545696 -2.795852 -15.219850 0.000000 0.000000 0.000000 16.532097 -6.111440 7.297754 -17.865098 -28.881001 -0.818766 133.968174 -41.278140 -104.030700 0.000000 0.000000 0.000000 -24.366701 -6.312247 -6.255042 24.294305 -11.668596 -2.512440 -80.274543 74.690458 -39.395478 0.000000 0.000000 0.000000 
-0.056835 0.945045 -0.017177 3.581902 39.762020 6.962220 1.860407 -2.118584 -17.936940 -2.999530 -2.553956 24.173992 7.265222 13.969976 1.438394 0.000000 0.000000 0.000000 -6.356511 -1.816369 -25.328103 -8.069705 0.989272 22.339118 8.968840 14.137550 13.467495 0.000000 0.000000 0.000000 8.840090 -2.581951 12.509546 -5.976955 2.566055 -3.331029 -4.532619 13.060012 9.172067 11.678121 -2.666918 -15.465059 0.000000 0.000000 0.000000 16.131599 -5.320773 7.215624 -19.772528 -29.865783 -0.719658 136.933595 -42.031112 -110.014618 0.000000 0.000000 0.000000 -23.589211 -6.519746 -6.537904 26.474468 -12.505837 -2.722585 -83.489413 75.477655 -42.006257 0.000000 0.000000 0.000000 
-0.059493 0.932020 -0.017312 3.281950 40.134723 5.812621 2.538072 -2.436184 -19.796524 -5.234249 -3.122436 29.650523 8.819380 16.261451 0.278794 0.000000 0.000000 0.000000 -5.368357 -1.875247 -27.301635 -9.915932 1.039406 28.258219 9.076502 15.266541 10.071688 0.000000 0.000000 0.000000 9.023948 -2.995589 14.243884 -5.866806 2.558000 -3.476966 -4.542139 13.549240 9.717661 11.881121 -2.037785 -17.553601 0.000000 0.000000 0.000000 15.226708 -6.016642 7.052255 -20.847094 -30.304889 -0.631723 139.084698 -43.275230 -115.041756 0.000000 0.000000 0.000000 -21.998393 -5.425790 -6.272551 28.088939 -12.763201 -2.961653 -94.275984 73.605059 -49.389703 0.000000 0.000000 0.000000 
-0.061872 0.917459 -0.017661 3.189875 40.695952 4.436958 3.232893 -2.704317 -21.335304 -7.764300 -3.537398 34.851545 10.526540 18.756758 -1.422091 0.000000 0.000000 0.000000 -4.333305 -1.946200 -29.242709 -12.519320 1.309763 34.490568 9.003266 16.212739 6.761868 0.000000 0.000000 0.000000 8.685966 -3.354307 16.130577 -5.441435 2.404642 -3.093145 -4.635768 14.832910 9.674555 12.542800 -2.096811 -18.226620 0.000000 0.000000 0.000000 14.714413 -7.407613 7.250069 -22.575818 -30.883968 -0.482556 141.250849 -44.047258 -120.606649 0.000000 0.000000 0.000000 -19.581025 -5.314409 -6.190619 29.341344 -11.811686 -3.053269 -102.664214 72.414384 -54.878041 0.000000 0.000000 0.000000 
-0.064005 0.903640 -0.018319 3.032835 41.929811 3.672097 4.358910 -2.984378 -22.994303 -10.180405 -3.684815 38.597170 11.266294 20.039113 -2.403466 0.000000 0.000000 0.000000 -3.457453 -2.056103 -30.681606 -15.158326 1.688043 39.276930 8.721276 16.639993 4.201776 0.000000 0.000000 0.000000 8.360807 -3.649583 17.487357 -4.828752 2.221236 -3.476978 -3.991567 15.386396 10.235835 13.077827 -1.853753 -19.651462 0.000000 0.000000 0.000000 13.552005 -8.941024 7.173610 -24.389217 -32.374646 -0.300999 142.600458 -45.798875 -125.601001 0.000000 0.000000 0.000000 -17.789489 -4.312853 -5.839269 31.481539 -10.408221 -3.122704 -115.076274 69.686933 -62.656596 0.000000 0.000000 0.000000 
-0.066147 0.891273 -0.019752 2.814652 43.179088 3.231664 4.690145 -3.313348 -24.399625 -11.516561 -4.103338 41.802956 12.397520 21.913358 -3.762622 0.000000 0.000000 0.000000 -2.917585 -2.371728 -32.324805 -16.948058 1.859471 43.229149 9.226330 18.484063 1.996324 0.000000 0.000000 0.000000 8.267990 -3.800599 18.029535 -4.742197 2.213232 -3.790112 -3.874027 16.417080 10.486633 13.923543 -2.234900 -19.511713 0.000000 0.000000 0.000000 14.648746 -10.769879 7.984338 -25.693975 -33.891021 -0.510583 142.804164 -46.105854 -127.990971 0.000000 0.000000 0.000000 -16.247854 -3.353961 -5.497958 34.081421 -9.272863 -3.091450 -127.722744 67.578623 -71.792473 0.000000 0.000000 0.000000 
-0.067653 0.881042 -0.021720 2.460582 44.995793 2.567672 5.443422 -3.552374 -25.385889 -12.947226 -4.291638 43.551041 13.080704 22.947772 -4.821827 0.000000 0.000000 0.000000 -3.023261 -2.946006 -33.356087 -17.528612 1.397631 46.403474 8.296014 17.383371 0.250382 0.000000 0.000000 0.000000 8.576887 -4.075758 18.534512 -4.502077 2.132034 -3.885984 -3.880365 18.542102 10.793425 15.060849 -1.862359 -21.617371 0.000000 0.000000 0.000000 15.063859 -11.905911 8.590300 -26.114986 -35.735397 -0.870922 140.647247 -45.988749 -126.657860 0.000000 0.000000 0.000000 -14.642513 -3.218157 -5.423753 36.441600 -8.397842 -2.881949 -139.519808 65.680889 -80.652921 0.000000 0.000000 0.000000 
-0.067338 0.878942 -0.023471 2.019638 46.989804 2.166532 5.416970 -3.811840 -26.014733 -13.427081 -4.600248 43.897602 12.876464 22.555586 -4.431599 0.000000 0.000000 0.000000 -3.746023 -3.443090 -32.746254 -16.325365 0.344891 45.939155 7.511188 15.890176 -0.643462 0.000000 0.000000 0.000000 8.903994 -4.092044 18.011023 -4.164313 2.089086 -4.832239 -3.369080 19.543105 12.220121 14.940749 -0.438603 -24.837907 0.000000 0.000000 0.000000 15.788224 -11.334301 8.988016 -25.169520 -36.959792 -1.555631 140.872848 -45.763413 -128.390291 0.000000 0.000000 0.000000 -15.373019 -3.024910 -5.845823 38.453322 -6.858789 -2.201433 -144.914675 65.941215 -85.334100 0.000000 0.000000 0.000000 
